# xmcd CD database file generated by Grip 3.3.0
# 
# Track frame offsets:
#       150
#       15369
#       30645
#       41338
#       53158
#       66976
#       77462
#       92174
#       107099
#       120180
#       131117
#       147306
# 
# Disc length: 2065 seconds
# 
# Revision: 3
# Processed by: cddbd v1.5.1PL0 Copyright (c) Steve Scherf et al.
# Submitted via: Grip 3.3.0
# 
DISCID=94080f0c
DTITLE=Nelson Cavaquinho  - Candeia - Guilherme de Brito - Elton Medeiros - Q
DTITLE=uatro grandes do samba
DYEAR=1977
DGENRE=Samba
TTITLE0=Nelson Cavaquinho, Candeia, Guilherme de Brito and Elton Medeiros - Não
TTITLE0=vem (Assim não dá)
TTITLE1=Elton Medeiro - Sem ilusão
TTITLE2=Nelson Cavaquinho - Notícia
TTITLE3=Guilherme de Brito - A flor e o espinho - Quando eu me chamar saudade
TTITLE4=Nelson Cavaquinho - Amor perfeito
TTITLE5=Guilherme de Brito - Gotas de luar
TTITLE6=Candeia and Dona Ivone Lara - Sou mais o samba
TTITLE7=Guilherme de Brito - A Vida
TTITLE8=Nelson Cavaquinho - Não é só você
TTITLE9=Elton Medeiros - Chove e não molha
TTITLE10=Candeia - Expressão do teu olhar
TTITLE11=Elton Medeiros - Rita Maloca
EXTD=YEAR: 1977
EXTT0=
EXTT1=
EXTT2=
EXTT3=
EXTT4=
EXTT5=
EXTT6=
EXTT7=
EXTT8=
EXTT9=
EXTT10=
EXTT11=
PLAYORDER=
